<?xml version="1.0" standalone="no"?>
<!DOCTYPE svg PUBLIC "-//W3C//DTD SVG 20010904//EN"
 "http://www.w3.org/TR/2001/REC-SVG-20010904/DTD/svg10.dtd">
<svg version="1.0" xmlns="http://www.w3.org/2000/svg"
 width="64.000000pt" height="128.000000pt" viewBox="0 0 64.000000 128.000000"
 preserveAspectRatio="xMidYMid meet">

<g transform="translate(0.000000,128.000000) scale(0.100000,-0.100000)"
fill="#000000" stroke="none">
<path d="M494 1198 c-72 -74 -82 -89 -93 -139 l-12 -56 -127 -7 c-199 -11
-270 -31 -206 -57 72 -30 530 -20 549 11 9 15 -29 29 -99 36 -54 6 -66 10 -62
23 2 9 8 32 12 51 5 25 28 57 82 112 63 66 73 80 62 93 -7 8 -16 15 -19 15 -4
0 -43 -37 -87 -82z"/>
<path d="M40 909 c0 -35 21 -241 26 -259 3 -9 16 6 34 38 17 28 39 56 50 62
28 15 71 9 84 -12 15 -25 -1 -34 -23 -14 -16 14 -23 15 -41 6 -22 -12 -80
-122 -80 -152 0 -49 63 -18 89 43 9 21 22 39 30 39 7 0 11 -6 8 -14 -3 -7 -15
-45 -27 -84 -23 -79 -47 -110 -37 -48 l6 38 -24 -16 c-13 -9 -31 -16 -40 -16
-14 0 -15 -11 -9 -87 4 -49 11 -96 15 -105 21 -40 270 -57 380 -25 l56 17 13
111 c6 61 10 113 7 115 -2 3 -18 -3 -35 -13 -24 -14 -34 -15 -43 -6 -9 9 -6
20 15 48 16 20 25 39 21 43 -12 12 -61 -53 -80 -104 -10 -27 -24 -55 -30 -62
-22 -24 -24 2 -5 46 11 23 15 42 10 42 -5 0 -11 -4 -14 -9 -8 -13 -89 -7 -94
7 -2 8 -11 7 -28 -4 -34 -23 -58 -11 -49 23 14 57 35 97 46 86 7 -7 5 -21 -7
-46 -34 -72 11 -55 48 17 24 47 35 34 18 -20 -7 -19 -9 -38 -6 -42 12 -11 33
23 66 106 18 45 36 82 41 82 14 0 11 -15 -21 -95 -16 -42 -30 -80 -30 -86 0
-19 42 12 63 48 11 20 23 31 24 26 3 -8 12 -7 30 2 28 15 53 10 53 -10 0 -8
-12 -27 -26 -44 -30 -36 -21 -41 18 -8 25 20 27 32 42 165 22 192 21 196 -6
188 -86 -25 -457 -25 -521 0 -13 5 -17 1 -17 -17z"/>
<path d="M127 274 c12 -20 21 -62 28 -139 l10 -110 45 -12 c58 -15 162 -15
220 0 l45 12 8 108 c4 64 14 121 23 139 15 28 14 29 -3 24 -105 -33 -271 -33
-376 0 -18 6 -18 5 0 -22z"/>
</g>
</svg>
