<?xml version="1.0" standalone="no"?>
<!DOCTYPE svg PUBLIC "-//W3C//DTD SVG 20010904//EN"
 "http://www.w3.org/TR/2001/REC-SVG-20010904/DTD/svg10.dtd">
<svg version="1.0" xmlns="http://www.w3.org/2000/svg"
 width="2398.000000pt" height="1479.000000pt" viewBox="0 0 2398.000000 1479.000000"
 preserveAspectRatio="xMidYMid meet">

<g transform="translate(0.000000,1479.000000) scale(0.100000,-0.100000)"
fill="#000000" stroke="none">
<path d="M6800 14353 c-939 -65 -1902 -297 -2666 -642 -422 -190 -994 -627
-1774 -1355 -1075 -1003 -2340 -2420 -2340 -2622 0 -36 31 -76 169 -218 137
-139 355 -343 880 -820 447 -408 737 -680 803 -758 51 -60 235 -431 375 -758
254 -590 437 -975 582 -1220 171 -290 350 -494 497 -566 64 -32 86 -38 142
-38 151 0 252 89 327 288 84 225 129 559 210 1556 126 1560 238 2304 465 3090
278 961 874 1943 1828 3010 250 279 741 765 971 961 l54 46 -24 16 c-45 30
-292 45 -499 30z"/>
<path d="M16855 14350 c-69 -10 -115 -25 -115 -39 0 -5 60 -62 133 -127 165
-148 534 -511 722 -711 914 -969 1588 -2003 1903 -2915 162 -468 295 -1070
392 -1773 57 -421 85 -699 160 -1600 49 -589 74 -844 105 -1065 8 -58 18 -125
21 -150 12 -93 75 -315 113 -394 70 -151 163 -221 290 -219 112 1 205 49 327
171 232 231 471 657 821 1467 36 83 148 318 249 524 101 206 184 379 184 386
0 22 381 387 840 804 562 511 828 761 914 856 l66 73 0 112 0 111 -42 62
c-271 402 -950 1159 -1759 1962 -644 638 -1097 1042 -1564 1392 -377 284 -561
388 -966 548 -636 252 -1441 442 -2159 510 -198 19 -552 27 -635 15z"/>
<path d="M6705 10446 c-694 -115 -1216 -614 -1367 -1306 -20 -92 -23 -133 -22
-325 0 -191 3 -234 23 -325 145 -672 656 -1172 1326 -1296 142 -27 440 -26
582 0 l103 19 107 109 c222 226 601 568 908 819 l140 115 23 69 c54 167 66
255 66 490 0 191 -3 234 -22 325 -71 327 -224 611 -452 840 -225 225 -516 383
-828 451 -124 27 -463 35 -587 15z m807 -486 c207 -64 336 -270 300 -480 -61
-354 -491 -487 -737 -229 -128 134 -157 313 -77 483 92 193 310 289 514 226z"/>
<path d="M17035 10445 c-534 -84 -986 -417 -1225 -900 -111 -225 -159 -417
-167 -675 -8 -241 20 -413 104 -639 l38 -105 89 -75 c279 -236 504 -440 736
-667 l125 -123 85 -25 c283 -84 610 -88 899 -10 524 141 955 547 1127 1059 68
204 78 274 78 530 0 200 -3 243 -22 331 -147 673 -671 1180 -1336 1294 -138
23 -400 26 -531 5z m-56 -484 c163 -51 273 -178 303 -349 23 -136 -25 -274
-131 -376 -70 -66 -139 -101 -231 -115 -282 -45 -540 211 -492 491 45 264 302
427 551 349z"/>
<path d="M12045 9048 c-612 -34 -1184 -335 -1395 -734 l-35 -67 -185 -61
c-1039 -346 -1925 -978 -2681 -1911 -426 -525 -656 -936 -753 -1345 -67 -282
-80 -505 -73 -1290 5 -601 11 -754 43 -1090 78 -836 260 -1385 559 -1686 184
-186 435 -299 726 -328 30 -3 146 -15 259 -26 402 -40 508 -65 720 -170 309
-154 641 -251 1025 -300 274 -35 514 -43 990 -34 242 5 899 9 1460 9 912 0
1036 2 1170 18 477 56 794 144 1180 327 190 90 311 119 576 140 79 6 205 15
279 21 445 35 698 141 901 380 303 356 469 976 529 1979 17 274 27 1081 18
1403 -12 459 -63 714 -209 1041 -188 423 -621 1009 -1100 1486 -637 636 -1363
1093 -2168 1365 l-154 52 -23 57 c-60 147 -224 332 -400 449 -348 232 -788
342 -1259 315z m574 -252 c-10 -10 -449 -186 -490 -197 -44 -12 -52 -11 -135
21 -101 37 -416 169 -423 176 -2 2 233 4 524 4 291 0 526 -2 524 -4z m-320
-3512 c217 -57 519 -226 816 -456 109 -85 473 -431 415 -395 -14 9 -77 49
-140 88 -231 146 -533 290 -771 367 -320 104 -511 104 -847 1 -338 -104 -757
-319 -1042 -534 -85 -64 -89 -64 -33 1 76 88 305 310 408 395 263 217 545 391
800 492 168 66 258 76 394 41z"/>
</g>
</svg>
